:FULLY-SPECIFIED
:FORCE-ALL-JOINTS-BE-3DOF
:DEGREES
747
root 4.01254 17.3023 14.3144 -163.96 -6.28994 188.94
lfemur -32.3834 2.56976 -14.147
ltibia 39.0646 0 0
lfoot -13.0208 -0.266 0
ltoes 15.4725 0 0
rfemur -25.2608 -30.7057 7.892
rtibia 105.731 0 0
rfoot 23.0684 -0.184649 0
rtoes 27.9626 0 0
lowerback 2.13055 6.32395 -1.49423
upperback -1.53635 8.34359 -2.58554
thorax -2.56069 4.18305 -2.14765
lowerneck -6.59489 -8.36614 -1.71498
upperneck -1.66733 -11.0658 4.89432
head 0.981269 -5.45209 1.47554
lclavicle 6.74918e-15 -3.05561e-14 0
lhumerus -51.7403 -14.594 69.4949
lradius 55.3425 0 0
lwrist 16.2614 0 0
lhand -25.9714 -6.28143 0
lfingers 7.12502 0 0
lthumb 0.573232 23.6658 0
rclavicle 6.74918e-15 -3.05561e-14 0
rhumerus 9.73505 33.0548 -72.8302
rradius 88.7844 0 0
rwrist -0.614989 0 0
rhand -23.3026 -24.0212 0
rfingers 7.12502 0 0
rthumb 3.14964 -773.894 0
748
root 3.96186 17.1604 14.5004 -163.938 -3.80391 188.906
lfemur -33.4407 4.26797 -15.1924
ltibia 41.218 0 0
lfoot -15.0781 1.0036 0
ltoes 15.137 0 0
rfemur -25.1289 -30.8619 9.33004
rtibia 103.877 0 0
rfoot 22.191 -0.894546 0
rtoes 27.7684 0 0
lowerback 2.31102 6.23686 -1.76381
upperback -1.42539 8.22034 -2.69649
thorax -2.5716 4.1279 -2.1256
lowerneck -6.45966 -8.43869 -1.74718
upperneck -1.66227 -11.1519 5.05397
head 0.975505 -5.48779 1.53263
lclavicle 3.05273e-15 -2.84546e-14 0
lhumerus -51.5666 -14.2311 71.5778
lradius 55.9366 0 0
lwrist 15.8725 0 0
lhand -26.3347 -6.4728 0
lfingers 7.12502 0 0
lthumb 0.222386 23.4756 0
rclavicle 3.05273e-15 -2.84546e-14 0
rhumerus 7.58444 35.138 -75.5066
rradius 88.5953 0 0
rwrist 0.0537329 0 0
rhand -22.715 -23.3852 0
rfingers 7.12502 0 0
rthumb 3.71706 -773.25 0
749
root 3.91118 17.0185 14.6865 -163.916 -1.31789 188.872
lfemur -34.498 5.96619 -16.2377
ltibia 43.3714 0 0
lfoot -17.1355 2.2732 0
ltoes 14.8016 0 0
rfemur -24.997 -31.018 10.7681
rtibia 102.023 0 0
rfoot 21.3136 -1.60444 0
rtoes 27.5743 0 0
lowerback 2.49149 6.14977 -2.03338
upperback -1.31442 8.09709 -2.80745
thorax -2.58251 4.07274 -2.10355
lowerneck -6.32444 -8.51123 -1.77937
upperneck -1.6572 -11.238 5.21362
head 0.969741 -5.52349 1.58972
lclavicle -6.43719e-16 -2.63532e-14 0
lhumerus -51.3928 -13.8682 73.6607
lradius 56.5307 0 0
lwrist 15.4836 0 0
lhand -26.698 -6.66418 0
lfingers 7.12502 0 0
lthumb -0.12846 23.2855 0
rclavicle -6.43719e-16 -2.63532e-14 0
rhumerus 5.43384 37.2212 -78.183
rradius 88.4062 0 0
rwrist 0.722455 0 0
rhand -22.1274 -22.7491 0
rfingers 7.12502 0 0
rthumb 4.28448 -772.606 0
750
root 3.86051 16.8766 14.8725 -163.893 1.16813 188.838
lfemur -35.5553 7.6644 -17.283
ltibia 45.5248 0 0
lfoot -19.1928 3.5428 0
ltoes 14.4661 0 0
rfemur -24.8651 -31.1742 12.2061
rtibia 100.169 0 0
rfoot 20.4363 -2.31434 0
rtoes 27.3801 0 0
lowerback 2.67196 6.06267 -2.30296
upperback -1.20345 7.97384 -2.9184
thorax -2.59342 4.01759 -2.08151
lowerneck -6.18921 -8.58378 -1.81157
upperneck -1.65214 -11.3241 5.37327
head 0.963977 -5.55919 1.64681
lclavicle -4.34017e-15 -2.42517e-14 0
lhumerus -51.2191 -13.5054 75.7436
lradius 57.1248 0 0
lwrist 15.0946 0 0
lhand -27.0613 -6.85556 0
lfingers 7.12502 0 0
lthumb -0.479307 23.0954 0
rclavicle -4.34017e-15 -2.42517e-14 0
rhumerus 3.28323 39.3045 -80.8594
rradius 88.2171 0 0
rwrist 1.39118 0 0
rhand -21.5398 -22.113 0
rfingers 7.12502 0 0
rthumb 4.8519 -771.962 0
751
root 3.80983 16.7347 15.0586 -163.871 3.65416 188.805
lfemur -36.6126 9.36261 -18.3283
ltibia 47.6782 0 0
lfoot -21.2501 4.8124 0
ltoes 14.1306 0 0
rfemur -24.7333 -31.3304 13.6442
rtibia 98.3153 0 0
rfoot 19.5589 -3.02424 0
rtoes 27.1859 0 0
lowerback 2.85242 5.97558 -2.57254
upperback -1.09249 7.85059 -3.02935
thorax -2.60434 3.96243 -2.05946
lowerneck -6.05398 -8.65633 -1.84376
upperneck -1.64708 -11.4102 5.53291
head 0.958214 -5.59489 1.7039
lclavicle -8.03661e-15 -2.21503e-14 0
lhumerus -51.0454 -13.1425 77.8266
lradius 57.7189 0 0
lwrist 14.7057 0 0
lhand -27.4245 -7.04693 0
lfingers 7.12502 0 0
lthumb -0.830153 22.9052 0
rclavicle -8.03661e-15 -2.21503e-14 0
rhumerus 1.13263 41.3877 -83.5359
rradius 88.028 0 0
rwrist 2.0599 0 0
rhand -20.9521 -21.477 0
rfingers 7.12502 0 0
rthumb 5.41932 -771.319 0
752
root 3.75915 16.5928 15.2446 -163.849 6.14018 188.771
lfemur -37.6699 11.0608 -19.3736
ltibia 49.8316 0 0
lfoot -23.3075 6.082 0
ltoes 13.7952 0 0
rfemur -24.6014 -31.4865 15.0822
rtibia 96.4614 0 0
rfoot 18.6815 -3.73413 0
rtoes 26.9918 0 0
lowerback 3.03289 5.88849 -2.84211
upperback -0.981524 7.72734 -3.14031
thorax -2.61525 3.90728 -2.03741
lowerneck -5.91876 -8.72887 -1.87596
upperneck -1.64201 -11.4963 5.69256
head 0.95245 -5.63059 1.76099
lclavicle -1.17331e-14 -2.00489e-14 0
lhumerus -50.8716 -12.7796 79.9095
lradius 58.313 0 0
lwrist 14.3168 0 0
lhand -27.7878 -7.23831 0
lfingers 7.12502 0 0
lthumb -1.181 22.7151 0
rclavicle -1.17331e-14 -2.00489e-14 0
rhumerus -1.01798 43.4709 -86.2123
rradius 87.839 0 0
rwrist 2.72862 0 0
rhand -20.3645 -20.8409 0
rfingers 7.12502 0 0
rthumb 5.98674 -770.675 0
